<?xml version="1.0" standalone="no"?>
<!DOCTYPE svg PUBLIC "-//W3C//DTD SVG 20010904//EN"
 "http://www.w3.org/TR/2001/REC-SVG-20010904/DTD/svg10.dtd">
<svg version="1.0" xmlns="http://www.w3.org/2000/svg"
 width="1280.000000pt" height="1280.000000pt" viewBox="0 0 1280.000000 1280.000000"
 preserveAspectRatio="xMidYMid meet">
<metadata>
Created by potrace 1.15, written by Peter Selinger 2001-2017
</metadata>
<g transform="translate(0.000000,1280.000000) scale(0.100000,-0.100000)"
fill="#000000" stroke="none">
<path d="M6249 12625 c-3 -28 -4 -33 -11 -41 -5 -4 -8 0 -8 9 0 10 -7 17 -16
17 -13 0 -15 -9 -11 -47 3 -27 13 -77 22 -113 15 -52 19 -114 21 -318 2 -232
4 -258 23 -302 30 -69 28 -79 -11 -71 l-33 8 0 -41 c0 -23 -5 -50 -9 -61 -5
-11 -8 -29 -7 -40 5 -42 -74 55 -121 147 -41 82 -68 138 -173 363 -13 28 -35
76 -49 108 -23 53 -46 69 -46 31 0 -30 -19 -11 -51 52 -19 36 -38 68 -42 71
-14 8 -37 -19 -37 -43 0 -21 -4 -23 -25 -18 -18 4 -25 2 -25 -7 0 -31 31 -125
48 -149 10 -14 23 -55 30 -92 6 -38 20 -81 31 -97 12 -16 21 -37 21 -48 -1
-15 -4 -13 -21 10 -23 31 -55 38 -44 10 3 -10 9 -31 12 -48 3 -16 11 -48 18
-70 7 -22 19 -60 26 -85 7 -25 27 -74 45 -110 82 -164 121 -260 107 -260 -8 0
-84 93 -137 165 -8 11 -17 17 -21 13 -9 -9 15 -86 32 -99 7 -6 13 -17 13 -24
0 -8 11 -26 24 -42 13 -15 54 -73 91 -128 37 -54 77 -112 88 -127 32 -43 14
-43 -19 0 -16 20 -91 99 -166 174 -135 134 -195 175 -219 151 -11 -11 40 -82
90 -126 17 -15 31 -32 31 -38 0 -15 -58 -4 -79 15 -20 17 -111 19 -111 2 0
-23 25 -45 74 -66 60 -25 95 -54 149 -122 50 -65 166 -199 183 -213 23 -18
104 -119 104 -128 0 -5 -28 -8 -63 -5 -52 3 -71 9 -103 34 -21 17 -66 46 -99
64 -33 18 -84 49 -112 67 -53 35 -172 83 -202 83 -9 0 -29 -12 -44 -26 l-29
-25 33 -29 c19 -16 31 -32 27 -35 -3 -4 -78 -7 -166 -8 -158 -2 -160 -2 -180
22 l-19 25 -25 -27 c-14 -15 -27 -27 -30 -27 -2 0 -15 14 -28 32 -26 35 -40
92 -44 175 -2 44 0 52 17 57 23 6 13 26 -12 26 -26 0 -48 28 -29 35 10 4 13
16 9 45 -5 34 -13 44 -53 70 -27 16 -48 34 -48 39 0 5 -10 13 -22 17 -13 3
-34 14 -48 24 -23 16 -63 32 -121 47 -13 4 -73 7 -133 8 -122 1 -106 -7 -210
104 -62 66 -103 98 -113 88 -3 -4 16 -30 42 -59 26 -29 42 -54 36 -56 -6 -2
-42 17 -80 42 -38 25 -71 46 -74 46 -3 0 -40 23 -81 50 -69 46 -116 63 -116
42 0 -5 9 -17 20 -27 33 -30 24 -38 -30 -31 -46 6 -50 5 -50 -14 0 -16 -6 -20
-37 -20 -79 0 -109 -25 -58 -48 15 -7 25 -20 25 -32 0 -14 7 -20 23 -20 28 0
77 -24 137 -68 68 -50 112 -80 143 -99 16 -10 45 -30 64 -45 22 -18 49 -29 72
-29 23 -1 28 -3 14 -6 -43 -8 -24 -44 30 -57 15 -4 44 -22 65 -41 21 -18 67
-49 102 -67 169 -89 337 -188 318 -188 -2 0 -54 16 -114 36 -231 76 -394 111
-394 85 0 -7 6 -13 13 -15 14 -4 55 -18 162 -58 44 -16 96 -33 115 -37 19 -4
57 -17 84 -29 27 -12 53 -22 58 -22 5 0 62 -26 128 -57 114 -54 153 -83 93
-69 -16 4 -60 11 -100 16 -87 11 -143 25 -205 50 -53 23 -225 47 -253 36 -25
-9 -11 -21 57 -43 l57 -20 -107 -12 c-103 -12 -134 -22 -118 -38 4 -5 76 -11
159 -14 176 -8 166 -7 147 -19 -8 -5 -48 -10 -88 -10 -76 0 -98 -14 -73 -44 9
-10 9 -16 1 -21 -6 -4 -10 -14 -8 -23 3 -15 20 -17 118 -18 87 -1 123 -5 148
-18 39 -20 41 -34 5 -42 -47 -11 -145 -45 -175 -60 -15 -8 -36 -14 -46 -14
-20 0 -49 -26 -40 -36 5 -4 71 5 153 22 27 6 28 5 15 -9 -8 -9 -50 -25 -92
-36 -42 -11 -87 -25 -99 -31 -35 -19 -4 -30 66 -23 l60 5 0 -68 c0 -79 -7 -94
-40 -94 -28 0 -38 -13 -39 -50 -1 -26 1 -27 32 -18 41 11 55 3 48 -28 -9 -36
13 -39 79 -10 32 15 61 26 66 26 5 0 31 14 57 30 41 25 60 30 111 30 33 0 61
-4 61 -8 0 -12 -127 -86 -171 -101 -20 -6 -45 -21 -55 -32 -11 -12 -37 -30
-59 -41 -22 -12 -52 -31 -67 -43 -15 -13 -33 -25 -40 -28 -7 -2 -10 -8 -5 -13
4 -4 30 0 58 10 27 10 52 17 53 15 2 -2 0 -26 -4 -52 -6 -39 -16 -57 -53 -95
-33 -34 -44 -51 -38 -61 7 -11 25 -5 91 32 46 26 88 47 95 47 19 0 24 -57 9
-101 -8 -21 -17 -65 -20 -96 -3 -32 -15 -77 -26 -100 -31 -67 -8 -107 38 -65
11 10 41 22 66 25 26 4 87 21 135 38 48 17 117 35 153 40 79 10 224 11 233 2
9 -8 -22 -43 -38 -43 -15 0 -26 -25 -20 -42 3 -7 -8 -21 -25 -30 -16 -9 -36
-32 -44 -51 -8 -19 -21 -39 -29 -43 -8 -5 -47 -45 -86 -89 -52 -58 -69 -84
-65 -98 4 -11 -2 -27 -14 -40 -11 -12 -33 -49 -50 -83 -17 -33 -37 -66 -46
-73 -18 -15 -21 -31 -6 -31 10 0 78 59 104 89 60 71 130 139 171 167 28 19 77
56 110 83 33 27 63 50 67 50 12 1 -51 -88 -118 -169 -35 -41 -122 -133 -194
-203 -72 -71 -129 -134 -127 -140 2 -7 21 -13 41 -15 34 -3 38 -6 33 -28 -9
-49 27 -17 64 56 12 25 35 61 49 80 15 19 35 49 44 67 8 17 24 34 35 38 10 3
61 39 111 80 51 41 97 75 102 75 12 0 -8 -36 -30 -52 -29 -22 -167 -198 -207
-263 -11 -18 -35 -54 -52 -79 -18 -26 -33 -56 -33 -67 0 -30 30 -22 41 11 6
17 14 30 19 30 4 0 20 19 36 43 15 23 33 47 40 52 6 6 27 35 46 65 21 33 56
69 86 90 28 19 56 44 62 56 14 26 99 98 106 91 10 -10 -36 -92 -83 -149 -27
-31 -84 -126 -128 -213 -44 -86 -88 -163 -97 -171 -22 -21 -69 -6 -117 36 -18
17 -39 30 -46 30 -7 0 -38 20 -68 45 -30 24 -74 52 -98 62 -74 29 -161 91
-230 163 -37 39 -82 77 -105 86 -21 9 -53 27 -71 40 -27 21 -43 24 -109 24
-54 0 -89 6 -118 19 -55 25 -137 58 -216 88 -36 13 -82 33 -103 44 -21 10 -54
22 -74 25 -20 3 -46 12 -57 20 -12 7 -51 20 -86 27 -36 8 -85 19 -110 25 -159
37 -199 45 -273 51 -102 9 -326 4 -390 -9 -26 -6 -80 -10 -120 -10 -40 -1
-106 -6 -147 -12 -41 -6 -97 -10 -125 -9 -27 1 -90 -6 -140 -15 -113 -21 -115
-21 -115 -34 0 -11 69 -15 195 -11 59 2 77 0 69 -8 -6 -7 -24 -14 -40 -17 -16
-3 -42 -9 -59 -14 -16 -5 -55 -14 -85 -20 -53 -12 -140 -54 -140 -68 0 -13 69
-62 86 -62 14 0 15 -3 6 -12 -34 -34 0 -36 103 -6 41 12 77 19 81 15 9 -9 -15
-37 -33 -37 -10 0 -13 -9 -11 -27 2 -23 9 -29 33 -31 31 -3 61 21 121 96 14
17 30 32 35 32 16 0 10 -26 -11 -45 -11 -10 -20 -26 -20 -37 0 -22 0 -22 36
-3 16 8 36 15 44 15 9 0 26 7 38 16 29 20 28 15 -8 -47 -17 -28 -30 -53 -28
-54 11 -12 132 46 273 131 80 48 85 28 12 -47 -112 -116 -140 -150 -131 -159
7 -7 33 3 74 25 36 19 68 35 73 35 27 1 -32 -86 -107 -158 -48 -46 -56 -58
-56 -90 0 -21 9 -48 20 -62 l19 -25 32 19 c18 11 78 54 132 95 161 122 207
155 213 148 8 -7 -129 -179 -155 -195 -28 -16 -43 -58 -36 -94 8 -33 21 -35
49 -9 24 22 97 32 103 15 2 -6 -8 -25 -22 -42 -14 -16 -25 -35 -25 -40 0 -6
-16 -23 -35 -38 -31 -23 -46 -27 -123 -30 -48 -1 -124 4 -168 12 -114 19 -271
18 -283 -3 -5 -10 -16 -14 -27 -10 -118 35 -195 54 -199 47 -5 -9 3 -16 39
-35 27 -14 30 -32 7 -38 -15 -4 -19 -13 -18 -43 2 -36 5 -41 51 -62 26 -13 46
-25 44 -28 -7 -6 -108 25 -150 48 -29 15 -42 17 -58 8 -24 -13 -26 -33 -5 -50
36 -30 -1 -61 -41 -35 -34 22 -74 20 -74 -5 0 -11 6 -20 14 -20 8 0 17 -4 20
-9 4 -5 -20 -7 -55 -4 -50 5 -61 3 -57 -8 3 -8 13 -16 24 -18 27 -5 44 -21 44
-42 0 -17 -8 -19 -62 -19 -73 0 -101 -11 -72 -29 14 -8 -1 -9 -66 -5 -91 6
-132 -6 -138 -39 -2 -10 4 -27 13 -37 23 -25 13 -48 -22 -52 -43 -5 -35 -30
14 -43 96 -24 62 -45 -74 -45 -57 0 -105 -4 -108 -10 -4 -6 8 -11 27 -11 18
-1 40 -3 48 -4 8 -1 33 -3 55 -4 l40 -2 -39 -20 c-26 -14 -35 -24 -28 -31 13
-13 67 -1 83 18 14 17 39 19 39 3 0 -23 -34 -66 -87 -108 -30 -23 -52 -45 -49
-48 2 -3 11 0 18 6 83 69 116 87 131 72 7 -7 7 -14 0 -23 -18 -23 -22 -68 -6
-68 12 0 14 -10 12 -44 -4 -42 -3 -43 17 -29 12 8 35 33 50 56 34 50 63 76 86
77 31 0 28 -17 -7 -56 -19 -22 -35 -42 -35 -47 0 -4 -11 -25 -25 -47 -14 -22
-25 -44 -25 -49 0 -6 -11 -21 -25 -35 -32 -33 -33 -66 -2 -66 13 0 31 -6 41
-13 20 -15 26 -10 258 216 55 54 103 96 105 93 5 -5 -46 -86 -64 -101 -20 -16
-73 -87 -73 -97 0 -15 35 9 81 55 47 47 78 67 103 67 21 0 20 -29 -1 -59 -24
-35 -83 -148 -83 -160 0 -14 47 -14 55 -1 12 19 35 10 35 -12 0 -48 16 -54 55
-20 23 21 46 32 65 32 41 0 39 -27 -5 -70 -41 -39 -44 -57 -12 -62 18 -2 21
-8 19 -35 -2 -20 1 -33 8 -33 6 0 41 29 79 64 103 97 188 133 105 45 -21 -23
-47 -50 -56 -60 -40 -42 -6 -55 35 -14 33 34 41 18 17 -34 -19 -39 -20 -53 -3
-113 7 -30 20 -21 68 47 26 36 51 65 56 65 5 0 9 -16 9 -36 0 -19 5 -44 10
-54 9 -17 4 -23 -39 -45 -28 -14 -64 -25 -80 -25 -16 0 -42 -6 -58 -14 -15 -8
-55 -20 -88 -26 -33 -7 -67 -16 -75 -20 -32 -19 -160 -80 -166 -80 -4 0 -34
-13 -68 -29 -167 -79 -283 -131 -292 -131 -6 0 -30 -13 -55 -29 -24 -16 -62
-34 -84 -40 -32 -8 -62 -33 -140 -113 -55 -57 -120 -129 -143 -160 -24 -31
-59 -66 -78 -77 -19 -11 -34 -24 -34 -29 0 -6 -8 -12 -18 -14 -11 -3 -62 -57
-114 -119 -52 -63 -156 -177 -231 -254 -124 -127 -149 -160 -131 -178 3 -3 26
6 52 19 49 26 65 20 57 -21 -2 -11 -6 -39 -10 -63 -5 -40 -4 -42 14 -32 25 13
35 -1 27 -38 -3 -15 -2 -33 3 -41 7 -11 13 -6 25 24 9 20 16 43 17 49 0 6 5 0
10 -13 5 -13 9 -33 8 -45 -1 -11 -1 -36 -1 -54 2 -28 5 -32 21 -27 15 4 20 1
23 -16 2 -12 11 -27 20 -33 14 -9 23 -6 42 14 20 20 27 45 39 125 11 75 25
120 54 180 29 61 39 74 41 57 2 -13 -1 -29 -7 -36 -9 -11 -41 -114 -41 -131 0
-3 4 -5 10 -5 5 0 40 62 78 138 38 75 82 158 98 183 25 40 126 193 161 246 11
15 12 12 7 -22 -6 -42 -30 -112 -62 -177 -2 -5 1 -8 7 -8 16 0 109 99 133 142
12 21 25 38 29 38 4 0 9 -29 11 -65 5 -74 22 -101 60 -92 12 4 31 20 40 36 9
17 34 38 54 48 22 10 51 37 67 61 48 71 63 49 26 -39 -15 -34 -19 -57 -14 -76
9 -32 8 -84 -1 -165 -4 -39 -2 -58 5 -58 6 0 11 5 11 10 0 6 8 19 18 29 9 11
25 31 35 45 10 14 27 26 37 26 20 0 60 63 60 94 0 15 26 46 39 46 4 0 13 -18
20 -39 25 -84 81 -57 121 56 l24 67 12 -74 c7 -41 14 -88 16 -105 2 -19 9 -30
18 -30 11 0 14 9 13 30 -9 98 -5 144 13 189 6 16 14 24 18 18 3 -6 2 -13 -4
-17 -18 -11 -10 -35 16 -45 20 -8 24 -14 19 -33 -4 -12 -11 -26 -16 -31 -15
-16 -10 -56 6 -56 10 0 15 -10 15 -30 0 -59 28 -33 55 50 10 30 22 66 28 80
l10 25 7 -30 c4 -16 12 -39 18 -50 6 -11 13 -29 17 -40 6 -19 8 -18 30 9 12
16 27 26 33 22 5 -3 19 18 31 47 12 28 26 59 31 67 5 8 25 47 45 85 19 39 44
86 57 105 12 19 30 53 40 74 26 55 33 38 14 -36 -17 -67 -33 -228 -23 -228 16
0 78 167 91 245 13 80 18 95 28 95 12 0 3 -77 -11 -95 -5 -5 -11 -41 -14 -80
-3 -38 -15 -110 -27 -158 -21 -91 -25 -217 -5 -217 10 0 22 33 30 85 2 17 12
57 20 90 9 33 17 71 19 85 6 50 18 90 25 90 9 0 21 -313 17 -432 -1 -43 0 -78
4 -78 10 0 30 73 30 111 0 19 4 41 10 49 7 12 10 11 16 -5 17 -52 105 -220
124 -239 19 -19 32 11 36 80 5 82 23 151 36 132 4 -7 8 -45 8 -83 0 -51 6 -82
20 -110 l21 -40 -8 195 c-12 290 -10 410 6 448 21 49 36 34 34 -33 -2 -50 1
-61 19 -73 19 -14 20 -22 15 -111 -6 -101 11 -250 28 -254 6 -1 12 65 16 173
4 96 7 193 8 215 l2 40 19 -42 c15 -33 19 -66 19 -155 0 -122 24 -238 49 -238
10 0 12 10 8 38 -31 209 -19 561 18 549 14 -5 24 -88 25 -217 1 -85 5 -114 21
-145 22 -43 25 -92 10 -144 -11 -39 -3 -84 13 -78 6 2 22 30 35 63 20 49 23
69 17 114 -10 82 -16 269 -9 318 5 43 19 56 27 25 3 -16 5 -16 12 2 5 11 17
31 27 44 10 13 18 35 18 50 1 14 9 41 18 59 l18 33 27 -51 c23 -43 27 -61 27
-134 0 -47 4 -87 9 -91 13 -8 20 7 23 49 2 20 7 36 11 36 4 0 6 -26 3 -57 -3
-32 -8 -107 -12 -168 -3 -60 -12 -124 -19 -142 -16 -37 -40 -191 -32 -199 9
-9 35 49 53 113 19 71 34 171 43 283 l6 85 19 -28 c11 -16 39 -70 62 -120 46
-97 96 -167 120 -167 8 0 23 -9 34 -20 11 -11 25 -20 30 -20 17 0 11 28 -10
48 -25 23 -110 194 -110 222 0 12 -9 35 -20 50 -11 16 -32 58 -45 95 -20 53
-23 70 -14 87 11 20 12 19 30 -18 10 -21 18 -53 19 -71 0 -21 7 -36 18 -42 10
-5 33 -45 52 -88 67 -155 81 -183 90 -183 13 0 13 14 -2 61 -6 22 -8 42 -5 46
13 12 47 -30 47 -58 0 -38 9 -59 26 -59 18 0 19 48 1 69 -17 20 -39 133 -31
155 9 23 24 9 24 -23 0 -15 11 -42 25 -61 14 -19 25 -39 25 -45 0 -6 8 -29 19
-51 10 -21 30 -64 45 -94 30 -64 53 -96 62 -88 7 7 -51 171 -71 204 -11 18
-19 68 -16 98 1 13 41 -25 41 -39 0 -10 12 -38 73 -167 23 -50 34 -58 44 -33
7 19 -16 82 -74 199 -39 81 -57 144 -34 121 25 -25 127 -218 151 -285 15 -41
31 -74 36 -73 12 4 17 102 6 116 -38 47 -140 272 -129 284 10 9 174 -338 184
-388 7 -36 40 -58 49 -34 12 31 -7 111 -46 193 -22 46 -40 87 -40 93 0 5 -9
28 -20 51 -15 31 -18 51 -13 87 6 41 4 45 -9 33 -23 -18 -36 3 -39 63 -2 39 1
49 12 47 18 -5 29 -22 29 -50 0 -12 9 -30 20 -39 11 -10 20 -24 20 -31 0 -8
15 -41 34 -75 18 -34 48 -96 66 -137 19 -41 42 -84 51 -94 31 -34 34 6 5 70
-26 56 -34 104 -18 104 5 0 20 -18 35 -41 21 -32 27 -53 27 -95 0 -65 24 -121
44 -105 25 21 54 -40 31 -63 -13 -12 -12 -20 5 -60 26 -59 36 -63 55 -27 20
39 19 52 -6 147 -24 88 -39 167 -33 173 5 5 43 -41 44 -53 0 -5 20 -41 44 -80
24 -39 47 -82 51 -96 8 -27 24 -42 37 -34 4 3 4 35 1 72 -6 61 -5 66 10 53 9
-7 19 -28 23 -47 12 -63 37 -49 47 25 4 35 0 55 -19 92 -13 27 -24 63 -24 82
0 18 -5 38 -11 44 -14 14 -25 143 -12 143 5 0 21 -37 35 -82 51 -161 68 -219
68 -229 0 -6 13 -24 30 -40 l29 -30 12 41 c11 35 13 38 25 22 10 -13 15 -14
25 -5 9 9 7 19 -10 46 -11 19 -21 50 -21 68 0 19 -7 42 -14 52 -8 10 -12 27
-9 37 3 11 0 41 -6 67 -15 64 -19 197 -6 202 18 7 43 -53 64 -153 12 -55 21
-111 21 -126 0 -14 7 -48 16 -74 13 -39 20 -47 36 -43 14 4 22 -2 29 -20 5
-13 15 -23 22 -20 16 6 12 55 -8 77 -9 10 -15 35 -15 66 0 41 -30 153 -51 189
-13 22 -19 64 -9 70 18 11 80 -147 80 -204 0 -11 9 -26 21 -33 11 -7 34 -40
51 -73 26 -51 32 -57 39 -40 4 11 8 35 8 53 1 22 11 42 31 64 34 35 37 54 14
86 -16 23 -17 32 -15 158 1 38 -3 90 -7 115 -5 24 -5 55 -2 69 6 22 7 20 13
-15 4 -22 7 -52 7 -66 0 -15 9 -37 19 -50 l19 -24 11 28 c6 16 11 53 11 83 0
62 14 72 25 18 11 -60 64 -134 96 -134 30 0 89 69 89 104 0 23 3 27 12 18 19
-19 27 -14 36 21 5 17 14 31 21 30 6 -2 11 7 11 20 1 54 18 50 45 -12 40 -88
48 -92 90 -45 34 38 35 38 50 20 15 -20 19 -16 16 16 -5 49 39 25 146 -81 75
-73 94 -113 96 -206 2 -68 1 -69 -30 -90 -18 -11 -33 -24 -33 -30 -1 -5 -21
-26 -45 -45 -24 -19 -44 -41 -44 -48 -1 -19 29 -27 50 -14 29 18 39 14 39 -15
0 -17 -12 -39 -32 -60 -28 -29 -33 -42 -36 -96 -5 -73 3 -84 63 -89 l39 -3 -2
-205 c-2 -113 1 -211 6 -218 22 -33 77 38 86 112 16 117 50 234 73 243 39 15
98 -51 76 -86 -7 -11 -7 -23 -2 -33 11 -19 5 -409 -10 -672 -12 -202 0 -706
19 -864 8 -58 8 -108 1 -156 -6 -39 -13 -107 -16 -151 -12 -164 -17 -212 -30
-270 -7 -33 -18 -85 -24 -115 -7 -30 -16 -75 -22 -100 -5 -25 -14 -79 -19
-120 -4 -41 -13 -91 -19 -110 -6 -19 -11 -49 -11 -66 0 -17 -7 -49 -16 -70
-13 -31 -17 -82 -19 -259 -3 -193 -6 -229 -25 -295 -12 -41 -27 -93 -33 -115
-6 -22 -37 -80 -68 -130 -31 -49 -65 -111 -76 -136 -12 -26 -26 -50 -32 -53
-6 -4 -11 -13 -11 -21 0 -7 -18 -51 -40 -98 -22 -47 -44 -107 -50 -134 -6 -26
-24 -68 -40 -93 -29 -46 -34 -56 -93 -220 -19 -52 -44 -114 -56 -138 -12 -23
-19 -42 -16 -42 5 0 -15 -43 -60 -130 -7 -14 -22 -56 -33 -95 -19 -63 -25 -72
-64 -95 -30 -17 -59 -24 -95 -25 -38 0 -57 -5 -75 -21 -17 -16 -41 -23 -90
-27 -43 -3 -78 -12 -95 -23 -16 -11 -55 -29 -88 -41 -50 -18 -60 -25 -60 -45
0 -20 -4 -23 -36 -20 -24 2 -43 -3 -60 -17 -24 -21 -24 -21 -4 -37 21 -16 35
-15 127 11 48 13 66 14 110 4 86 -19 134 -17 160 8 16 15 42 23 88 28 36 4 80
11 98 17 18 5 41 6 50 2 39 -18 355 -18 387 -1 34 19 79 21 418 19 305 -2 327
-1 327 16 0 9 -21 32 -45 51 -25 18 -45 37 -45 42 0 5 -17 19 -37 32 -31 19
-63 26 -163 36 -69 7 -172 13 -230 14 -101 2 -105 3 -117 27 -13 27 3 95 69
295 16 50 34 108 38 130 14 65 77 262 100 310 38 81 90 222 90 244 1 36 44
179 58 193 7 7 12 31 12 55 0 23 7 68 15 100 8 31 15 76 15 100 0 23 6 57 14
75 17 40 46 136 46 153 0 7 7 19 16 26 9 8 26 34 36 59 22 49 58 189 58 222 0
12 7 44 15 72 8 28 24 103 36 166 11 63 25 129 30 145 5 17 11 127 14 245 3
118 13 305 21 415 41 555 40 775 -5 1320 -9 111 2 312 18 344 6 11 14 57 18
103 8 79 9 83 33 86 25 3 69 59 97 123 6 15 16 29 21 33 11 7 36 -15 52 -45 6
-10 18 -19 28 -19 9 0 26 -7 36 -15 27 -20 52 -19 68 4 12 17 19 19 58 10 38
-9 46 -8 58 8 12 17 15 16 40 -15 15 -18 30 -32 34 -32 3 0 9 15 13 33 21 103
40 128 74 95 10 -11 15 -9 26 6 8 10 16 24 19 30 7 18 26 -15 26 -46 0 -36 11
-35 31 1 15 26 23 29 75 33 33 2 68 1 80 -3 12 -4 46 1 83 13 64 21 66 23 151
142 14 20 30 34 35 32 12 -4 7 -83 -7 -109 -5 -10 -7 -26 -3 -34 5 -14 8 -14
21 3 11 14 17 15 20 7 7 -15 34 -17 34 -3 0 6 5 10 11 10 7 0 8 -11 4 -30 -8
-38 4 -38 40 0 16 17 38 30 50 30 11 0 26 5 33 12 14 14 20 1 24 -51 2 -19 8
-36 15 -38 19 -6 81 55 93 92 10 32 42 65 62 65 4 0 15 -11 24 -25 15 -22 15
-28 -1 -69 -9 -24 -14 -49 -10 -55 11 -19 31 -12 43 13 6 14 20 29 31 35 16 9
24 5 50 -24 17 -20 31 -47 31 -60 0 -29 17 -33 35 -8 12 16 15 14 32 -22 22
-48 33 -57 50 -43 10 8 18 6 32 -6 10 -9 30 -18 44 -19 13 -1 34 -13 45 -27
32 -38 56 -18 62 53 6 61 24 94 36 63 4 -10 4 -54 1 -99 -5 -76 -4 -80 10 -59
23 33 33 27 33 -23 0 -25 5 -45 10 -45 6 0 10 5 10 11 0 5 12 36 26 67 47 106
54 123 54 136 0 8 7 19 15 26 13 10 15 9 15 -11 0 -13 -7 -33 -15 -43 -16 -21
-21 -96 -7 -96 9 0 72 131 72 149 0 6 5 11 10 11 15 0 13 -18 -19 -139 -25
-95 -27 -112 -14 -122 22 -19 36 3 72 111 39 113 55 136 46 65 -6 -47 -11 -67
-34 -159 -12 -47 -5 -69 20 -63 11 3 22 1 25 -4 9 -14 24 -10 24 7 0 8 5 12
10 9 6 -3 10 -22 10 -41 0 -45 17 -43 36 3 12 28 18 33 25 22 5 -8 9 -29 9
-46 0 -18 4 -33 9 -33 9 0 36 59 52 113 4 16 34 89 66 163 57 132 58 134 90
134 17 0 35 -5 38 -11 6 -9 -18 -123 -51 -236 -17 -56 -16 -84 3 -90 14 -5 45
62 73 158 11 37 26 71 32 75 10 7 10 -7 -8 -198 -5 -49 -3 -59 12 -65 29 -11
60 40 68 109 7 70 15 88 28 64 11 -20 28 -21 28 -1 0 26 24 95 33 95 5 0 11
-9 14 -20 3 -11 8 -20 12 -20 3 0 26 -34 51 -75 45 -75 63 -89 74 -59 4 10 14
14 26 11 26 -7 34 7 19 35 -10 18 -9 24 6 34 16 12 16 16 -5 59 -12 26 -28 49
-35 51 -6 3 -33 34 -60 70 -33 45 -44 69 -37 76 7 7 16 4 30 -10 35 -35 184
-142 198 -142 24 0 15 21 -26 63 -44 44 -47 58 -6 31 15 -9 29 -14 32 -11 16
16 -16 53 -99 117 -51 39 -101 79 -111 90 -19 20 -19 20 1 20 20 0 93 -43 146
-87 33 -26 70 -31 61 -8 -4 8 -4 15 -2 15 18 0 77 -26 94 -42 20 -18 84 -42
92 -34 8 9 -19 45 -50 65 -18 11 -67 43 -108 71 -74 50 -74 51 -35 44 22 -3
47 -12 55 -19 8 -8 60 -37 115 -65 55 -28 109 -60 121 -71 40 -37 95 -9 59 31
-14 16 -20 40 -10 40 3 0 14 -5 25 -12 13 -9 27 -9 47 -2 22 7 29 18 34 47 5
33 2 41 -28 72 -35 36 -45 89 -21 113 9 9 7 17 -11 36 -17 19 -21 31 -17 53 8
33 -10 53 -85 96 -25 14 -64 46 -87 71 -23 25 -45 46 -48 46 -3 0 -19 10 -35
23 -15 12 -60 47 -99 77 -92 71 -124 129 -121 215 1 35 8 66 16 75 8 9 15 23
15 31 0 17 49 -41 50 -59 0 -7 6 -15 14 -18 18 -7 99 -146 119 -204 9 -25 23
-62 32 -84 15 -35 19 -38 47 -32 17 3 34 6 39 6 16 0 9 34 -16 75 -70 116 -95
166 -110 220 -24 81 -65 166 -92 188 -13 10 -23 29 -23 43 0 29 4 30 28 6 10
-10 27 -25 38 -33 45 -32 113 -156 139 -254 7 -27 21 -63 29 -80 9 -16 16 -33
16 -38 0 -4 12 -26 26 -48 20 -32 28 -38 39 -29 11 9 10 20 -6 63 -11 29 -27
65 -35 81 -8 16 -12 31 -9 34 6 7 6 7 74 -80 29 -38 59 -68 67 -68 16 0 19 36
4 45 -6 4 -26 31 -45 61 -19 30 -52 74 -73 97 -52 59 -82 103 -82 122 0 9 -11
38 -25 65 -27 53 -32 85 -14 96 13 7 26 -10 36 -45 8 -30 49 -93 69 -104 8 -4
14 -14 14 -22 0 -8 9 -19 20 -25 11 -6 20 -17 20 -24 0 -27 83 -163 115 -189
42 -33 51 -22 23 29 -14 26 -21 60 -23 101 -1 39 -7 69 -17 80 -17 21 -32 83
-19 83 5 0 14 -13 21 -30 7 -16 18 -34 26 -41 7 -6 23 -30 35 -53 33 -66 73
-121 92 -124 25 -5 22 31 -8 87 -13 25 -44 89 -68 141 -35 78 -43 105 -43 150
1 35 5 55 13 55 13 0 110 -128 143 -187 24 -45 89 -110 102 -102 5 3 -6 31
-23 62 -18 32 -43 76 -55 99 -13 23 -30 53 -39 67 -12 18 -15 43 -13 97 l3 74
24 -48 c13 -28 21 -57 17 -70 -3 -12 -1 -29 4 -37 7 -11 10 -7 16 14 l7 29 18
-24 c10 -13 19 -29 19 -35 0 -6 11 -16 25 -22 13 -6 36 -31 51 -54 53 -87 69
-108 83 -108 9 0 11 7 6 23 -16 50 -17 79 -4 122 7 25 18 44 23 42 5 -2 18
-20 29 -40 10 -20 25 -37 32 -37 7 0 20 -3 29 -6 11 -4 16 0 16 14 0 36 19 34
68 -7 67 -57 108 -52 67 6 -9 12 -15 39 -14 60 1 40 -14 146 -26 176 -5 11 -2
17 8 17 23 0 34 -20 48 -85 7 -33 21 -68 32 -79 18 -18 19 -17 12 39 -7 55 -7
57 15 53 18 -2 30 -20 56 -82 18 -43 36 -81 39 -84 3 -3 12 3 20 14 13 16 16
17 25 4 5 -8 10 -24 10 -35 0 -11 4 -26 9 -34 7 -11 11 -9 20 8 15 26 28 27
36 1 9 -29 24 -25 36 10 14 37 27 38 35 3 4 -16 14 -43 21 -62 13 -31 15 -32
28 -15 14 18 14 18 15 1 0 -10 6 -17 12 -15 15 5 26 41 27 92 1 52 9 42 22
-30 13 -71 20 -84 30 -58 7 19 7 19 14 -1 18 -49 37 -85 45 -85 6 0 11 67 11
163 2 139 3 151 9 82 4 -44 10 -99 14 -121 7 -40 9 -42 41 -41 29 1 35 5 40
29 4 15 10 28 14 28 12 0 31 -48 31 -76 0 -16 5 -24 13 -21 12 4 13 69 2 212
-3 45 -2 53 5 32 5 -16 13 -34 18 -40 8 -10 20 -46 28 -84 1 -6 7 -28 14 -47
11 -33 14 -36 51 -34 38 1 49 10 29 23 -5 3 -10 21 -10 39 0 17 -4 36 -9 42
-9 9 -41 101 -41 116 0 9 63 -41 149 -118 48 -43 89 -69 97 -61 3 3 -4 21 -16
41 -25 46 -26 64 -2 45 83 -68 160 -62 87 7 l-37 34 59 -6 58 -6 -32 29 c-17
15 -43 36 -57 46 -32 22 -33 35 -3 39 20 3 20 5 -10 21 -49 26 -43 51 17 67
28 7 50 17 50 20 0 8 -48 41 -112 79 -21 13 -38 25 -38 28 0 3 23 3 50 -1 66
-9 64 5 -4 49 -30 19 -58 39 -61 45 -4 6 -21 17 -40 24 -18 8 -41 26 -50 40
-11 16 -30 28 -53 32 -62 10 -205 45 -234 56 -16 6 -28 19 -30 31 -2 16 -11
23 -32 25 -16 2 -39 10 -50 17 -24 16 -144 45 -184 45 -14 0 -44 6 -67 14 -22
8 -87 19 -145 25 -58 6 -136 15 -175 21 -153 22 -255 32 -374 36 -137 5 -145
8 -272 92 -68 46 -122 92 -105 92 4 0 72 -32 151 -72 101 -50 148 -69 155 -62
7 7 -5 21 -42 45 -86 56 -142 89 -160 95 -32 11 -19 23 14 13 18 -5 34 -9 36
-9 2 0 1 14 -3 30 -4 17 -3 30 2 30 12 0 101 -87 141 -138 18 -23 39 -42 46
-42 8 0 16 -7 20 -15 6 -18 26 -20 26 -3 0 6 -30 56 -67 110 -92 134 -125 189
-118 196 3 3 20 0 38 -7 18 -8 61 -17 97 -21 36 -3 87 -15 112 -25 47 -17 98
-15 98 5 0 13 -18 20 -162 65 -117 37 -141 51 -143 84 -2 25 42 14 127 -33 82
-46 132 -62 124 -40 -7 19 19 29 36 15 70 -58 80 -63 90 -53 9 9 7 17 -7 32
-27 30 -14 33 54 15 34 -10 68 -14 78 -10 22 10 65 6 78 -6 16 -15 27 -10 13
7 -36 43 -68 74 -78 74 -14 0 -12 20 3 26 7 2 31 -2 54 -10 93 -33 174 -28
144 8 -7 8 -10 24 -6 36 5 16 2 20 -14 20 -11 0 -22 4 -25 9 -4 5 -25 12 -49
16 -23 4 -46 11 -52 15 -5 4 -26 10 -45 14 -19 3 -55 10 -80 16 -25 6 -67 15
-95 21 -27 7 -178 14 -335 18 l-285 6 -25 52 c-14 29 -50 81 -80 115 -30 34
-60 70 -66 80 -14 25 -212 226 -286 291 -61 52 -76 84 -35 72 12 -4 31 -13 43
-20 12 -8 38 -17 58 -20 29 -6 40 -4 50 11 12 16 19 13 96 -44 109 -83 138
-98 162 -83 14 9 24 9 41 0 24 -13 172 -121 223 -163 33 -27 60 -33 66 -15 2
6 14 2 30 -10 14 -12 32 -21 40 -21 8 0 19 -5 25 -11 17 -17 87 -7 91 13 4 22
-324 351 -398 399 -156 101 -340 169 -512 190 -88 10 -122 27 -123 59 0 26
-70 100 -95 100 -6 0 -24 6 -38 14 -15 7 -45 19 -67 26 -22 7 -69 31 -105 54
-90 57 -103 62 -210 75 -135 16 -230 33 -265 47 -76 29 -95 39 -95 51 0 7 -6
14 -12 14 -37 5 127 20 263 25 148 6 161 5 240 -20 72 -21 99 -37 187 -106 57
-44 111 -80 119 -80 17 0 11 10 -49 74 -32 34 -36 51 -10 41 75 -31 199 -75
210 -75 27 0 4 25 -44 50 -27 14 -51 26 -53 28 -2 1 -2 5 1 8 4 3 23 1 44 -5
40 -11 114 -5 114 10 0 4 -17 11 -37 15 -21 4 -45 12 -53 19 -8 7 -28 15 -43
19 -17 4 -25 11 -21 18 11 17 189 3 220 -17 25 -16 60 -14 50 4 -8 13 -84 51
-102 51 -8 0 -13 4 -10 9 4 5 38 7 76 4 45 -3 70 -1 70 5 0 20 -8 22 -245 71
-225 47 -252 54 -294 72 -29 13 -68 19 -120 20 -42 0 -85 4 -96 9 -29 12 166
12 235 0 30 -5 87 -17 125 -25 78 -17 274 -47 320 -49 25 -1 30 3 30 23 0 21
-9 27 -70 48 -38 13 -80 22 -93 20 -13 -3 -42 1 -65 8 -23 7 -88 15 -145 19
-57 4 -115 12 -130 18 -15 6 -52 13 -82 17 -39 4 -55 10 -55 21 0 20 125 31
300 28 l130 -3 20 -32 c27 -43 56 -51 92 -23 34 24 65 27 181 16 55 -6 82 -5
82 2 0 11 -52 32 -84 33 -12 0 2 7 29 16 28 8 61 19 75 25 24 9 24 10 5 24
-10 8 -28 14 -39 14 -15 0 -17 3 -8 12 9 9 21 9 50 0 57 -17 112 -16 112 3 0
8 9 15 20 15 12 0 25 10 30 23 6 12 15 30 22 39 10 14 8 20 -12 36 -25 20 -25
20 -5 42 18 20 18 22 2 31 -22 13 -22 29 1 29 9 0 31 11 47 24 30 24 30 25 10
40 -11 9 -42 16 -70 16 -86 2 -97 15 -24 30 76 16 99 26 99 45 0 20 -24 30
-100 44 -54 10 -82 9 -165 -4 -55 -8 -145 -20 -200 -25 -55 -5 -116 -14 -135
-19 -19 -6 -84 -17 -145 -26 -60 -9 -148 -22 -195 -30 -133 -22 -143 -23 -157
-18 -7 3 -13 12 -13 20 0 12 -8 14 -37 8 -21 -4 -50 -13 -65 -21 -15 -8 -35
-14 -45 -14 -11 1 -50 45 -102 115 -46 63 -104 134 -127 157 l-44 43 43 8 c23
4 79 11 125 15 45 4 82 12 83 17 0 6 -40 16 -88 23 -201 29 -191 27 -160 40
15 6 27 15 27 20 0 13 -55 51 -86 58 -16 4 -33 9 -38 12 -12 7 15 22 41 22 35
0 38 20 5 32 -17 7 -33 20 -35 30 -4 15 -16 18 -74 19 l-68 0 45 13 c80 23
102 35 98 54 -2 9 -13 18 -25 20 -31 5 -50 30 -29 38 9 3 16 12 16 19 0 23
-29 25 -72 5 -24 -11 -52 -20 -64 -20 -11 0 -29 -7 -40 -15 -20 -15 -54 -20
-54 -7 0 4 31 27 68 52 134 90 166 120 124 120 -17 0 -90 -35 -166 -80 -62
-38 -38 -2 35 51 70 51 159 136 159 152 0 6 -22 8 -60 4 -49 -6 -60 -4 -60 8
0 11 11 15 36 15 38 0 74 15 74 30 0 6 -7 10 -15 10 -25 0 -17 17 19 39 36 22
62 71 52 96 -3 8 -19 18 -36 21 -36 8 -36 11 -9 40 34 36 16 47 -59 40 -35 -4
-80 -13 -100 -22 -45 -18 -49 -13 -18 21 46 50 37 51 -63 8 -18 -8 -79 -45
-135 -82 -101 -68 -140 -91 -150 -91 -12 0 -5 28 10 41 9 7 13 21 10 33 -3 11
0 26 6 33 5 7 7 20 4 29 -5 14 -10 14 -42 -5 -19 -12 -42 -21 -50 -21 -20 0
-42 -22 -36 -38 2 -6 -1 -12 -7 -12 -6 0 -11 5 -11 10 0 6 -7 10 -15 10 -20 0
-19 39 2 62 21 23 7 53 -25 53 -12 0 -28 9 -36 20 -14 19 -16 19 -54 -22 -21
-24 -44 -43 -49 -43 -6 0 -18 -11 -27 -25 -20 -31 -32 -32 -40 -2 -6 22 -7 22
-32 -8 -13 -16 -28 -43 -31 -59 -3 -16 -14 -31 -25 -33 -19 -6 -24 -28 -8 -38
17 -10 11 -25 -10 -25 -11 0 -20 -4 -20 -10 0 -9 -47 -68 -132 -164 -23 -26
-68 -64 -98 -84 -30 -20 -68 -46 -83 -59 -16 -13 -38 -23 -49 -23 -11 0 -33
-8 -49 -17 -28 -16 -29 -16 -44 2 -14 20 -15 20 -21 -2 -8 -29 -31 -30 -39 -2
-9 28 -28 19 -41 -21 -6 -18 -21 -37 -33 -41 -11 -5 -21 -16 -21 -25 0 -22
-18 -81 -36 -117 -8 -16 -14 -35 -14 -43 0 -8 -11 -20 -25 -26 -16 -7 -25 -19
-25 -34 0 -13 -4 -26 -10 -29 -13 -8 -13 39 1 84 6 20 15 49 19 64 9 28 4 58
-9 56 -3 0 -26 -40 -49 -90 -24 -49 -47 -89 -51 -89 -9 0 8 140 21 163 5 11 8
38 7 61 -2 23 0 46 3 52 4 5 7 36 8 69 3 93 -32 156 -58 108 -8 -14 -14 -8
-32 31 -16 36 -24 46 -33 37 -9 -9 -8 -16 1 -31 14 -24 16 -50 2 -50 -18 0
-29 104 -20 190 4 39 -12 160 -21 160 -17 0 -43 -133 -54 -269 -3 -41 -8 -78
-12 -84 -13 -21 -20 19 -16 96 2 45 5 139 6 209 2 70 6 130 10 134 13 13 8
116 -5 112 -13 -5 -44 -51 -54 -80 -8 -22 -20 -23 -32 -2 -12 21 -32 10 -32
-17 0 -10 -10 -39 -22 -64 -20 -38 -27 -44 -46 -40 -13 3 -30 1 -38 -6 -25
-20 -37 -4 -39 52 -2 71 -14 92 -30 53 l-12 -29 -8 30 c-19 83 -58 197 -80
237 -8 14 -15 34 -15 45 0 10 -7 27 -15 37 -8 11 -15 27 -15 37 0 22 -29 33
-36 14 -9 -23 -24 -7 -24 26 0 16 -4 29 -10 29 -5 0 -10 -9 -10 -20 0 -11 -4
-20 -10 -20 -5 0 -10 20 -10 45 0 33 -4 45 -15 45 -9 0 -15 -9 -15 -24 0 -14
-4 -28 -10 -31 -6 -3 -10 5 -10 19 0 31 -9 56 -21 56 -5 0 -10 -7 -10 -15z
m2515 -814 c3 -5 -4 -11 -16 -14 -25 -7 -33 -3 -23 12 8 13 32 14 39 2z m-544
-229 c0 -14 -49 -56 -57 -49 -3 4 4 18 17 32 24 25 40 32 40 17z m-3822 -342
c31 -19 40 -30 25 -30 -16 0 -88 49 -73 50 8 0 30 -9 48 -20z m2619 -172 c-3
-7 -5 -2 -5 12 0 14 2 19 5 13 2 -7 2 -19 0 -25z m-1460 -110 c28 -22 11 -27
-27 -7 -22 12 -40 23 -40 26 0 8 53 -7 67 -19z m-42 -198 c3 -5 -1 -10 -9 -10
-9 0 -16 5 -16 10 0 6 4 10 9 10 6 0 13 -4 16 -10z m3353 -35 c-8 -8 -48 8
-42 16 3 5 14 4 25 -2 12 -6 19 -12 17 -14z m-3545 -12 c10 -3 17 -15 17 -29
0 -27 17 -31 46 -9 21 16 44 20 44 8 0 -5 -16 -19 -35 -32 -35 -24 -35 -24
-76 -5 -40 17 -66 55 -53 76 3 5 13 6 23 3 9 -4 24 -10 34 -12z m-476 -119
c-3 -3 -12 -4 -19 -1 -8 3 -5 6 6 6 11 1 17 -2 13 -5z m4113 -4 c0 -5 -2 -10
-4 -10 -3 0 -8 5 -11 10 -3 6 -1 10 4 10 6 0 11 -4 11 -10z m798 4 c33 -9 26
-24 -12 -24 -49 0 -96 11 -90 21 6 10 68 12 102 3z m362 -54 c0 -5 -6 -10 -14
-10 -8 0 -18 5 -21 10 -3 6 3 10 14 10 12 0 21 -4 21 -10z m-1651 -21 c36 -5
69 -13 74 -16 11 -7 119 -24 169 -27 21 -1 43 -7 50 -14 6 -6 22 -12 34 -12
36 0 37 -16 2 -55 -38 -44 -38 -44 -238 9 -74 19 -155 38 -180 41 -85 11 -93
14 -80 30 9 11 7 15 -12 19 -97 21 -139 26 -211 27 -56 0 -76 3 -62 9 25 11
366 3 454 -11z m387 -19 c2 0 4 -7 4 -15 0 -21 -16 -19 -50 7 -41 30 -38 41 6
23 20 -8 38 -15 40 -15z m-4101 10 c-3 -5 -21 -10 -38 -10 -24 0 -28 3 -17 10
20 13 63 13 55 0z m235 -71 l45 -24 -86 -12 c-70 -10 -109 -24 -225 -79 -76
-36 -148 -70 -160 -74 -30 -12 -48 3 -38 31 4 13 6 38 5 55 -1 18 4 36 14 44
21 18 127 54 200 68 33 6 69 14 80 16 41 10 122 -3 165 -25z m733 -114 c44
-15 81 -34 84 -42 3 -7 18 -13 33 -13 15 0 33 -7 40 -15 7 -9 21 -13 31 -10
18 6 85 -22 76 -32 -3 -3 -40 -2 -82 2 -69 7 -77 10 -86 32 -10 27 -35 26 -33
-1 3 -33 -76 -20 -179 29 -54 25 -102 42 -111 39 -9 -3 -27 1 -41 10 -48 31
-31 38 83 34 85 -3 123 -10 185 -33z m2857 20 c47 -7 95 -17 108 -21 l23 -7
-22 -23 c-31 -33 -54 -30 -123 13 -32 20 -73 39 -90 44 -56 13 11 10 104 -6z
m-110 -39 c25 -18 66 -42 93 -55 52 -25 55 -31 30 -53 -32 -27 -46 -25 -153
20 -200 84 -251 102 -292 102 -23 0 -38 3 -34 8 12 12 135 20 226 15 75 -5 90
-9 130 -37z m-3293 -2 c49 -8 75 -30 52 -45 -29 -18 -104 -6 -194 32 l-30 12
30 8 c29 7 55 6 142 -7z m4006 -31 c-13 -2 -35 -2 -50 0 -16 2 -5 4 22 4 28 0
40 -2 28 -4z m-4233 -13 c0 -5 -18 -10 -41 -10 -24 0 -38 4 -34 10 3 6 22 10
41 10 19 0 34 -4 34 -10z m377 -7 c3 -7 -3 -9 -17 -6 -29 8 -37 25 -9 21 12
-1 24 -8 26 -15z m4231 -33 c12 -6 -10 -9 -73 -10 -99 0 -138 7 -128 23 7 12
177 2 201 -13z m-1763 0 c3 -5 -1 -10 -10 -10 -9 0 -13 5 -10 10 3 6 8 10 10
10 2 0 7 -4 10 -10z m1470 0 c3 -5 -3 -10 -15 -10 -12 0 -18 5 -15 10 3 6 10
10 15 10 5 0 12 -4 15 -10z m-4688 -50 c-27 -21 -47 -26 -47 -10 0 12 30 29
54 30 16 0 15 -3 -7 -20z m3620 -21 c27 -6 64 -17 83 -25 19 -7 51 -16 70 -19
72 -13 101 -45 66 -74 -10 -8 -31 -4 -87 19 -41 17 -99 38 -129 47 -128 37
-130 82 -3 52z m1408 -9 c3 -5 1 -10 -4 -10 -6 0 -11 5 -11 10 0 6 2 10 4 10
3 0 8 -4 11 -10z m-4517 -11 c26 -7 51 -16 57 -20 5 -5 19 -9 32 -9 13 0 23
-4 23 -10 0 -5 -7 -10 -15 -10 -9 0 -15 -9 -15 -21 0 -19 4 -20 35 -15 20 4
35 3 35 -2 0 -17 -23 -19 -125 -11 -142 11 -187 19 -182 32 3 10 93 77 104 77
2 0 25 -5 51 -11z m4684 -28 c4 -3 -10 -5 -32 -3 -22 2 -43 9 -47 14 -7 12 67
2 79 -11z m-4932 -11 c0 -5 -5 -10 -11 -10 -5 0 -7 5 -4 10 3 6 8 10 11 10 2
0 4 -4 4 -10z m-80 -69 c0 -16 -19 -23 -40 -16 -30 10 -24 25 10 25 17 0 30
-4 30 -9z m175 -22 c39 -11 39 -12 15 -21 -39 -15 -104 -6 -108 15 -4 21 31
23 93 6z m4075 -39 c11 -7 7 -10 -17 -10 -18 0 -33 5 -33 10 0 13 30 13 50 0z
m-4372 -61 c-32 -21 -38 2 -10 41 l17 25 3 -29 c2 -16 -2 -32 -10 -37z m567
51 c8 -13 -20 -24 -42 -16 -15 6 -15 8 -3 16 20 13 37 12 45 0z m3115 -9 c0
-11 -26 -22 -34 -14 -12 12 -5 23 14 23 11 0 20 -4 20 -9z m-3305 -39 c39 -6
84 -18 100 -26 17 -9 37 -16 45 -16 22 -1 -14 -27 -75 -55 -90 -42 -129 -50
-281 -61 -91 -7 -85 -11 -98 67 -5 29 -2 39 16 56 61 55 117 62 293 35z m4450
-18 c31 -20 33 -38 3 -28 -53 15 -88 34 -88 45 0 15 51 5 85 -17z m-1692 2
c21 -4 48 -11 60 -18 12 -6 35 -14 51 -17 88 -19 -29 -59 -136 -47 -68 8 -138
25 -138 35 0 3 10 13 23 20 46 30 72 41 87 36 8 -2 32 -6 53 -9z m322 -37 c70
-12 105 -25 105 -39 0 -18 -50 -23 -68 -8 -9 9 -35 18 -56 21 -22 4 -49 16
-60 28 -21 21 -21 22 -1 15 11 -4 47 -12 80 -17z m1125 0 l69 -12 45 -75 c51
-82 56 -102 26 -102 -20 0 -24 8 -20 48 1 17 -4 22 -24 22 -14 0 -31 -8 -38
-18 -22 -30 -78 -44 -118 -29 -19 6 -41 18 -48 25 -17 16 -27 15 -46 -3 -20
-21 -26 -19 -26 9 0 23 -23 56 -39 56 -14 0 -29 -46 -24 -73 3 -17 1 -27 -7
-27 -15 0 -172 112 -165 118 2 3 10 1 17 -5 7 -5 33 -16 56 -23 51 -16 75 -6
80 32 2 20 10 27 34 32 21 4 29 10 24 21 -4 12 6 15 65 15 39 0 101 -5 139
-11z m-491 -25 c39 -8 41 -24 2 -24 -35 0 -61 9 -61 21 0 11 16 11 59 3z m738
-48 c50 -41 43 -106 -13 -106 -16 0 -29 15 -53 64 -41 84 -41 99 1 82 17 -8
46 -26 65 -40z m-3667 34 c-20 -13 -40 -13 -40 0 0 6 12 10 28 10 21 0 24 -2
12 -10z m2215 -22 c24 -11 44 -52 32 -65 -4 -3 -28 1 -54 10 -31 10 -53 12
-64 6 -22 -11 -89 -12 -89 0 0 4 20 14 45 21 24 7 50 19 56 26 14 17 40 18 74
2z m905 2 c0 -5 -4 -10 -10 -10 -5 0 -10 5 -10 10 0 6 5 10 10 10 6 0 10 -4
10 -10z m-3713 -6 c-3 -3 -12 -4 -19 -1 -8 3 -5 6 6 6 11 1 17 -2 13 -5z
m2967 -13 c3 -4 -4 -17 -15 -27 -22 -20 -51 -11 -57 20 -3 12 4 16 32 16 19 0
37 -4 40 -9z m1478 -26 c0 -5 -5 -11 -11 -13 -6 -2 -11 4 -11 13 0 9 5 15 11
13 6 -2 11 -8 11 -13z m-4508 -45 c-6 -6 -35 -20 -65 -31 -30 -12 -72 -28 -94
-36 -22 -9 -61 -19 -86 -23 -48 -9 -95 -28 -144 -59 -44 -29 -64 -26 -35 4 13
14 27 25 31 25 5 0 27 13 51 29 77 52 170 90 228 94 120 7 124 7 114 -3z
m-324 -10 c0 -5 -7 -10 -15 -10 -9 0 -18 -7 -22 -15 -7 -19 -60 -48 -73 -40
-15 9 -12 19 11 49 16 20 29 26 60 26 21 0 39 -4 39 -10z m3270 -23 c0 -18
-21 -37 -40 -37 -8 0 -27 8 -40 18 l-25 17 35 6 c58 10 70 10 70 -4z m610 -56
c20 -10 51 -22 70 -26 60 -12 110 -28 110 -35 0 -3 -29 -7 -65 -7 -45 0 -77 5
-102 18 -21 11 -46 19 -57 19 -20 0 -66 36 -66 53 0 13 68 -1 110 -22z m-120
-221 c8 -5 12 -11 10 -14 -3 -2 -14 2 -24 10 -22 15 -10 19 14 4z m-3482 -117
c-26 -26 -50 -44 -54 -41 -12 13 8 48 31 54 13 3 29 12 36 20 6 8 16 14 23 14
6 0 -10 -21 -36 -47z m3377 17 c-8 -13 -35 0 -35 16 0 12 4 12 20 4 11 -6 18
-15 15 -20z m-2955 -65 c-27 -29 -37 -27 -20 4 6 12 18 21 27 21 13 0 12 -5
-7 -25z m4192 -110 c5 -11 -11 2 -36 30 -25 27 -46 54 -46 60 1 12 68 -62 82
-90z m282 -17 c17 -18 62 -60 99 -92 151 -133 230 -213 223 -224 -14 -22 -47
-12 -85 27 -20 21 -42 40 -47 42 -5 2 -27 26 -49 54 -22 27 -73 86 -112 130
-67 74 -82 95 -67 95 3 0 20 -15 38 -32z m-6514 -72 c0 -8 -67 -46 -81 -46
-20 0 43 49 64 50 9 0 17 -2 17 -4z m-360 -30 c0 -3 -15 -15 -32 -27 l-33 -23
24 27 c22 24 41 35 41 23z m669 -37 c-8 -5 -21 -9 -29 -9 -10 1 -7 7 10 21 17
14 26 17 28 9 3 -7 -2 -16 -9 -21z m-249 12 c0 -5 -15 -18 -32 -30 -54 -34
-80 -53 -141 -103 -58 -47 -77 -57 -77 -39 0 11 55 55 157 126 80 55 93 62 93
46z m-500 -40 c0 -11 -40 -41 -54 -41 -5 0 1 11 14 25 24 26 40 32 40 16z
m810 -41 c0 -6 -17 -19 -37 -28 -21 -10 -71 -38 -111 -62 -41 -25 -93 -56
-118 -70 -24 -14 -91 -56 -149 -94 -58 -37 -108 -66 -110 -64 -3 2 27 35 65
73 59 59 93 80 247 161 173 90 213 105 213 84z m5304 -31 c16 -17 41 -38 55
-47 27 -17 168 -131 208 -168 31 -28 29 -44 -5 -44 -22 0 -46 18 -113 87 -46
47 -104 104 -127 127 -44 41 -69 76 -55 76 5 0 21 -14 37 -31z m-6199 -9 c-10
-11 -21 -17 -24 -14 -3 3 3 12 13 20 28 20 32 17 11 -6z m1175 -66 c0 -23 -42
-64 -66 -64 -8 0 -14 10 -14 23 0 12 -3 32 -6 44 -5 16 1 25 23 36 25 14 30
14 46 0 9 -9 17 -26 17 -39z m4670 21 c13 -14 21 -27 19 -29 -6 -6 -20 4 -43
32 -26 30 -5 28 24 -3z m-5560 -49 c0 -8 -14 -19 -31 -25 -44 -15 -46 -14 -19
14 26 28 50 33 50 11z m754 -29 c9 -23 16 -48 16 -53 0 -6 -37 -44 -82 -85
-46 -41 -94 -84 -107 -96 -28 -25 -66 -34 -115 -26 -32 5 -36 3 -36 -16 0 -18
-6 -23 -30 -23 -3 -1 -20 2 -38 6 -30 5 -33 4 -27 -14 8 -24 -5 -25 -70 -8
-50 13 -55 22 -24 39 16 8 28 8 46 0 30 -14 33 -14 33 -1 0 6 -10 14 -22 19
l-21 8 24 16 c13 10 62 45 109 79 47 35 103 74 125 89 22 14 62 45 90 67 35
30 59 42 81 42 28 0 33 -5 48 -43z m6076 33 c0 -5 -2 -10 -4 -10 -3 0 -8 5
-11 10 -3 6 -1 10 4 10 6 0 11 -4 11 -10z m-4837 -96 c-23 -48 -45 -80 -55
-82 -28 -5 -22 30 12 73 17 21 30 41 30 45 0 14 44 63 47 53 2 -6 -13 -46 -34
-89z m3645 40 c-4 -3 -12 5 -18 18 -12 22 -12 22 6 6 10 -10 15 -20 12 -24z
m658 11 c10 -8 29 -15 42 -15 12 0 22 -2 22 -4 0 -2 3 -11 6 -19 3 -8 -2 -17
-11 -20 -10 -4 -31 8 -58 33 -40 38 -41 56 -1 25z m-4009 -73 c14 -9 -17 -95
-64 -181 -39 -72 -46 -77 -77 -55 -39 29 -39 41 7 99 23 29 55 74 70 99 28 46
41 53 64 38z m5139 -16 c18 -14 18 -15 1 -21 -9 -4 -24 -2 -32 5 -33 28 -5 42
31 16z m-6335 -81 c-17 -25 -31 -49 -31 -52 0 -3 -14 -21 -30 -40 -17 -19 -48
-70 -70 -114 -22 -43 -45 -79 -50 -79 -15 0 -60 31 -60 41 0 5 13 20 29 34 15
14 75 80 132 145 56 66 105 118 107 115 2 -2 -10 -25 -27 -50z m4663 40 c3 -8
1 -15 -3 -15 -5 0 -11 7 -15 15 -3 8 -1 15 3 15 5 0 11 -7 15 -15z m-4562 -87
c-16 -35 -44 -101 -62 -148 -18 -47 -38 -90 -44 -96 -15 -13 -86 -37 -93 -30
-14 13 54 156 105 221 119 150 146 165 94 53z m-232 37 c0 -12 -153 -186 -172
-196 -15 -8 -23 -8 -32 1 -8 8 8 28 63 78 41 37 86 79 99 95 23 25 42 35 42
22z m-1045 -41 c-10 -7 -22 -11 -26 -8 -16 9 -9 24 14 33 28 11 37 -7 12 -25z
m5925 26 c0 -13 -28 -25 -38 -16 -3 4 0 11 8 16 20 13 30 12 30 0z m-314 -26
c10 -14 29 -38 41 -52 22 -26 32 -59 14 -48 -11 7 -91 111 -91 119 0 15 18 5
36 -19z m1770 1 c15 -14 33 -25 40 -25 19 0 48 -60 36 -72 -18 -18 -122 78
-122 112 0 17 18 11 46 -15z m-4936 -30 c0 -3 -7 -22 -15 -41 -8 -20 -12 -40
-10 -45 3 -5 -1 -22 -10 -39 -12 -23 -22 -30 -38 -28 -31 4 -33 35 -4 66 13
15 33 42 43 60 16 28 34 42 34 27z m-2212 -16 c-5 -14 -100 -51 -107 -42 -3 3
-1 7 4 10 6 2 26 12 45 23 40 21 63 25 58 9z m5252 -60 c0 -14 -12 -10 -26 9
-22 29 -16 51 6 23 11 -13 20 -27 20 -32z m1427 -100 c89 -80 146 -146 138
-159 -3 -5 -23 -10 -44 -10 -35 0 -41 4 -82 63 -24 34 -56 72 -71 85 -29 25
-43 56 -33 72 11 18 24 11 92 -51z m73 31 c0 -5 -4 -10 -10 -10 -5 0 -10 5
-10 10 0 6 5 10 10 10 6 0 10 -4 10 -10z m74 -65 c26 -25 70 -57 97 -70 27
-14 49 -30 49 -35 0 -16 -24 -22 -47 -13 -24 9 -163 140 -163 154 0 18 17 8
64 -36z m-7934 3 c0 -11 -48 -10 -55 2 -3 6 -4 14 0 20 7 11 55 -8 55 -22z
m8135 5 c11 -7 27 -13 36 -13 9 0 22 -6 28 -14 6 -7 31 -19 56 -26 38 -11 75
-43 75 -65 0 -3 -24 -5 -52 -4 -50 0 -57 4 -127 62 -41 34 -76 68 -78 74 -5
14 33 6 62 -14z m-5899 -50 c-19 -35 -22 -7 -4 33 9 20 14 23 16 11 2 -8 -4
-28 -12 -44z m94 -7 c0 -16 -24 -38 -33 -30 -7 7 14 44 25 44 5 0 8 -6 8 -14z
m5355 -16 c3 -5 1 -10 -4 -10 -6 0 -11 5 -11 10 0 6 2 10 4 10 3 0 8 -4 11
-10z m35 -50 c9 -16 8 -20 -5 -20 -8 0 -15 9 -15 20 0 11 2 20 5 20 2 0 9 -9
15 -20z m-150 -50 c0 -5 -2 -10 -4 -10 -3 0 -8 5 -11 10 -3 6 -1 10 4 10 6 0
11 -4 11 -10z m-2280 -216 c6 -14 10 -35 10 -47 l-1 -22 -19 24 c-21 24 -27
71 -10 71 6 0 15 -12 20 -26z m3080 -70 c0 -11 -7 -9 -30 8 -16 12 -30 28 -30
36 0 10 8 8 30 -8 17 -12 30 -28 30 -36z m-3172 7 c2 -12 0 -30 -3 -39 -6 -15
-8 -15 -15 3 -5 11 -9 31 -9 43 -1 30 23 24 27 -7z m-530 -73 l-13 -23 -3 23
c-4 28 21 66 26 39 2 -9 -3 -26 -10 -39z m-4698 38 c0 -3 -4 -8 -10 -11 -5 -3
-10 -1 -10 4 0 6 5 11 10 11 6 0 10 -2 10 -4z m8374 -56 c67 -64 86 -104 86
-178 0 -22 4 -52 10 -66 5 -14 7 -26 3 -26 -10 0 -53 42 -53 53 0 4 -18 34
-40 64 -22 31 -42 72 -45 92 -5 30 -14 54 -43 114 -2 4 2 7 8 7 7 0 40 -27 74
-60z m-8294 26 c0 -3 -4 -8 -10 -11 -5 -3 -10 -1 -10 4 0 6 5 11 10 11 6 0 10
-2 10 -4z m228 -52 c2 -14 -10 -28 -39 -47 -58 -39 -71 -21 -23 32 39 44 57
48 62 15z m4032 -48 c0 -12 3 -26 8 -30 4 -4 7 -33 8 -64 0 -32 6 -87 11 -125
6 -37 9 -76 6 -87 -6 -21 -60 -50 -94 -50 -26 0 -50 52 -47 103 1 23 -1 52 -6
65 -11 32 20 42 40 13 25 -35 35 -25 28 32 -5 44 -3 55 10 60 19 7 21 38 4 55
-9 9 -9 17 2 36 15 29 30 25 30 -8z m-4203 -38 c-15 -39 -87 -88 -87 -58 0 11
80 90 92 90 3 0 1 -14 -5 -32z m8159 -40 c37 -52 60 -125 45 -141 -12 -12 -83
112 -89 156 -2 20 -2 37 1 37 3 0 22 -24 43 -52z m-3498 -4 c2 -16 -4 -38 -12
-49 -14 -19 -15 -16 -16 33 0 39 4 53 13 50 6 -3 13 -18 15 -34z m4322 0 c22
-26 28 -40 21 -47 -6 -6 -12 -9 -14 -6 -2 2 -15 19 -30 37 -48 60 -28 74 23
16z m-4122 -54 c13 -24 20 -50 17 -59 -5 -12 -15 -1 -40 38 -33 51 -37 76 -12
68 7 -2 22 -23 35 -47z m-4668 11 c-13 -25 -27 -34 -34 -22 -7 10 20 41 35 41
6 0 6 -7 -1 -19z m3822 -13 c-9 -9 -12 -7 -12 12 0 19 3 21 12 12 9 -9 9 -15
0 -24z m3830 15 c27 -31 48 -81 48 -115 l0 -33 -21 35 c-12 19 -30 47 -40 62
-20 28 -26 68 -11 68 5 0 16 -8 24 -17z m682 -35 c12 -27 13 -39 4 -44 -17
-11 -38 25 -38 65 0 41 12 34 34 -21z m-9034 -3 c0 -8 -4 -15 -10 -15 -5 0
-10 7 -10 15 0 8 5 15 10 15 6 0 10 -7 10 -15z m9343 -55 c8 -25 18 -53 22
-62 5 -12 3 -18 -7 -18 -15 0 -48 84 -48 121 0 31 14 14 33 -41z m-808 26 c20
-30 32 -96 17 -96 -5 0 -19 27 -30 60 -21 62 -15 79 13 36z m-7301 -3 c4 -4
15 -8 24 -8 9 0 18 -9 20 -20 2 -11 10 -27 18 -36 12 -14 12 -19 -7 -43 -28
-36 -19 -60 16 -44 30 13 39 7 30 -22 -10 -32 -46 -60 -76 -60 -15 0 -40 -5
-56 -12 -15 -6 -62 -17 -103 -24 -41 -8 -95 -18 -120 -24 -25 -7 -62 -14 -84
-17 l-39 -5 7 38 c14 81 36 108 86 109 8 0 25 16 38 35 13 19 27 36 31 38 5 1
11 -25 14 -59 8 -73 14 -84 34 -68 8 8 12 21 9 35 -10 38 3 56 35 49 24 -6 29
-3 29 13 0 31 11 52 26 52 8 0 17 6 19 13 25 70 31 78 49 60z m4060 -25 c34
-49 2 -116 -51 -106 -27 5 -30 48 -4 55 16 4 21 13 21 39 0 39 12 43 34 12z
m256 -8 c0 -13 -7 -20 -20 -20 -19 0 -27 20 -13 33 13 14 33 6 33 -13z m2509
-167 c1 -24 -3 -43 -8 -43 -10 0 -19 75 -19 165 l0 60 13 -70 c8 -38 14 -89
14 -112z m-3619 124 c8 -14 11 -29 7 -33 -11 -11 -47 26 -47 48 0 26 21 18 40
-15z m4800 3 c0 -11 -4 -20 -10 -20 -5 0 -10 9 -10 20 0 11 5 20 10 20 6 0 10
-9 10 -20z m-8153 -12 c-3 -8 -6 -5 -6 6 -1 11 2 17 5 13 3 -3 4 -12 1 -19z
m298 12 c3 -5 1 -10 -4 -10 -6 0 -11 5 -11 10 0 6 2 10 4 10 3 0 8 -4 11 -10z
m8482 -22 c-3 -7 -5 -2 -5 12 0 14 2 19 5 13 2 -7 2 -19 0 -25z m-8414 -65 c7
-42 -2 -53 -45 -53 -30 0 -45 15 -24 23 8 3 22 22 31 41 20 43 30 40 38 -11z
m67 17 c0 -5 -4 -10 -10 -10 -5 0 -10 5 -10 10 0 6 5 10 10 10 6 0 10 -4 10
-10z m140 -10 c0 -22 -19 -34 -45 -28 -14 3 -14 5 0 26 20 28 45 29 45 2z
m6940 10 c0 -5 -2 -10 -4 -10 -3 0 -8 5 -11 10 -3 6 -1 10 4 10 6 0 11 -4 11
-10z m-4469 -122 c18 -40 49 -95 68 -122 18 -27 38 -66 43 -85 16 -60 57 -123
76 -117 20 6 45 -25 56 -66 8 -35 -4 -35 -35 -2 -13 14 -42 39 -64 54 -39 27
-56 54 -111 175 -15 33 -33 67 -41 76 -13 16 -43 116 -43 144 0 32 18 12 51
-57z m394 -18 c10 -11 15 -20 11 -20 -14 0 -46 21 -46 30 0 16 16 11 35 -10z
m205 -29 c0 -6 -4 -13 -10 -16 -5 -3 -10 1 -10 9 0 9 5 16 10 16 6 0 10 -4 10
-9z m-3523 -243 c-8 -84 -23 -206 -38 -298 -6 -41 -14 -95 -18 -120 l-7 -45
-7 60 c-8 70 1 163 34 339 25 133 45 169 36 64z m3281 -62 c-4 -40 -30 -46
-47 -10 -8 19 -9 30 -1 38 5 5 10 19 10 31 1 19 2 19 21 -4 13 -16 19 -36 17
-55z m-3666 -1 c-4 -21 -59 -145 -65 -145 -9 0 7 119 20 143 16 32 50 34 45 2z
m1138 -17 c0 -25 -3 -29 -10 -18 -13 20 -13 50 0 50 6 0 10 -15 10 -32z m2067
-40 c-3 -7 -5 -2 -5 12 0 14 2 19 5 13 2 -7 2 -19 0 -25z m-3317 -55 c-3 -21
-17 -60 -29 -88 -17 -39 -21 -60 -16 -96 5 -37 2 -56 -14 -87 -12 -23 -21 -47
-21 -54 0 -7 -11 -34 -25 -61 -14 -26 -23 -47 -20 -47 3 0 -2 -11 -11 -25 -27
-41 -38 -31 -30 28 4 28 11 103 15 164 6 94 10 117 29 140 12 16 43 58 69 95
27 38 51 68 54 68 4 0 3 -17 -1 -37z m1074 -18 c-2 -18 -9 -46 -14 -60 -6 -14
-10 -39 -10 -55 0 -16 -5 -32 -11 -36 -7 -4 -9 -25 -7 -55 6 -54 -6 -67 -16
-18 -9 46 -7 105 4 131 5 13 17 49 25 81 18 61 36 69 29 12z m-299 -39 c-8
-44 -25 -73 -25 -40 0 42 13 93 22 88 5 -3 6 -24 3 -48z m655 28 c0 -8 -4 -14
-10 -14 -5 0 -10 9 -10 21 0 11 5 17 10 14 6 -3 10 -13 10 -21z m-225 -21 c3
-13 2 -23 -3 -23 -11 0 -22 24 -22 48 0 21 15 5 25 -25z m322 -31 c-3 -14 -6
-12 -14 8 -6 14 -8 29 -5 34 7 13 24 -22 19 -42z m-921 -24 c-6 -70 -39 -198
-44 -174 -2 11 1 45 8 75 6 31 16 77 22 104 13 62 20 60 14 -5z m-1134 -123
c-30 -68 -59 -122 -63 -119 -5 3 12 49 38 102 25 53 51 107 56 120 6 12 14 22
18 22 3 0 -18 -56 -49 -125z m2039 48 c5 -15 9 -38 7 -52 l-3 -26 -18 32 c-19
36 -23 73 -7 73 6 0 15 -12 21 -27z m552 -34 c10 -30 28 -64 40 -77 20 -22 46
-96 47 -136 0 -16 -3 -15 -25 8 -14 15 -34 45 -45 67 -11 21 -25 39 -30 39 -5
0 -19 19 -31 42 -19 37 -20 45 -8 80 7 21 17 37 23 35 6 -2 19 -28 29 -58z
m217 10 c0 -11 -4 -17 -10 -14 -5 3 -10 15 -10 26 0 11 5 17 10 14 6 -3 10
-15 10 -26z m-390 1 c0 -11 -2 -20 -4 -20 -2 0 -6 9 -9 20 -3 11 -1 20 4 20 5
0 9 -9 9 -20z m617 -52 c-3 -8 -6 -5 -6 6 -1 11 2 17 5 13 3 -3 4 -12 1 -19z
m-2481 -99 c-9 -22 -16 -50 -16 -63 0 -13 -7 -29 -15 -36 -13 -11 -15 -6 -15
39 0 48 16 95 44 130 19 24 20 -25 2 -70z m1613 29 c0 -31 -1 -31 -10 -10 -5
13 -7 28 -3 33 10 16 14 9 13 -23z m-1048 -80 c2 -66 -7 -186 -28 -382 -5 -38
-12 -71 -18 -72 -5 -2 -32 65 -59 148 l-49 152 13 65 c17 89 29 108 31 51 1
-25 1 -54 0 -64 -2 -25 18 -86 29 -86 10 0 20 37 20 81 0 40 23 103 41 115 7
4 9 23 5 53 -4 32 -3 41 4 29 6 -9 11 -49 11 -90z m7356 87 c3 -9 3 -18 0 -21
-7 -8 -47 15 -47 26 0 16 40 11 47 -5z m-6456 -16 c4 -8 21 -47 38 -88 36 -86
40 -116 11 -78 -11 14 -20 32 -20 41 0 9 -4 24 -9 34 -33 67 -50 113 -40 110
7 -2 16 -11 20 -19z m-1001 -44 c0 -8 -2 -15 -4 -15 -2 0 -6 7 -10 15 -3 8 -1
15 4 15 6 0 10 -7 10 -15z m-700 -35 c0 -22 -4 -40 -10 -40 -11 0 -14 63 -3
73 11 12 13 8 13 -33z m2581 -82 c19 -38 27 -114 10 -103 -6 3 -28 43 -50 90
-22 46 -45 86 -51 90 -5 3 -10 15 -10 26 0 15 8 10 41 -23 22 -24 49 -60 60
-80z m-3361 83 c0 -6 -4 -13 -10 -16 -5 -3 -10 1 -10 9 0 9 5 16 10 16 6 0 10
-4 10 -9z m300 -40 c0 -12 -20 -25 -27 -18 -7 7 6 27 18 27 5 0 9 -4 9 -9z
m680 -38 c0 -26 -11 -63 -19 -63 -4 0 -5 18 -3 40 4 39 22 58 22 23z m-720
-12 c0 -6 -4 -13 -10 -16 -5 -3 -10 1 -10 9 0 9 5 16 10 16 6 0 10 -4 10 -9z
m6330 -7 c0 -8 -5 -12 -10 -9 -6 4 -8 11 -5 16 9 14 15 11 15 -7z m870 6 c0
-5 -5 -10 -11 -10 -5 0 -7 5 -4 10 3 6 8 10 11 10 2 0 4 -4 4 -10z m181 -103
c-13 -13 -15 1 -4 30 7 17 8 17 11 -1 2 -10 -1 -23 -7 -29z m814 33 c3 -5 2
-10 -4 -10 -5 0 -13 5 -16 10 -3 6 -2 10 4 10 5 0 13 -4 16 -10z m-1318 -62
c-3 -7 -5 -2 -5 12 0 14 2 19 5 13 2 -7 2 -19 0 -25z m191 -2 c3 -20 0 -27
-10 -24 -7 3 -14 17 -16 32 -3 20 0 27 10 24 7 -3 14 -17 16 -32z m-3918 -14
c0 -7 -4 -10 -10 -7 -5 3 -10 16 -10 28 0 18 2 19 10 7 5 -8 10 -21 10 -28z
m4308 -5 c-7 -14 -13 -17 -16 -9 -6 19 6 44 18 37 7 -4 6 -14 -2 -28z m-551
-64 c-3 -10 -5 -4 -5 12 0 17 2 24 5 18 2 -7 2 -21 0 -30z m-7467 -72 c-11
-40 -26 -59 -38 -47 -3 4 5 27 18 51 29 53 35 52 20 -4z m7740 25 c0 -8 -4
-18 -10 -21 -5 -3 -10 3 -10 14 0 12 5 21 10 21 6 0 10 -6 10 -14z"/>
<path d="M1705 7600 c-3 -5 -1 -10 4 -10 6 0 11 5 11 10 0 6 -2 10 -4 10 -3 0
-8 -4 -11 -10z"/>
<path d="M4072 5970 c2 -19 8 -34 13 -33 17 3 17 27 0 48 -15 19 -15 18 -13
-15z"/>
</g>
</svg>
